<svg width="800" height="800" viewBox="0 0 800 800" fill="none" xmlns="http://www.w3.org/2000/svg">
<rect width="800" height="800" fill="#113DBC"/>
<path d="M387.697 197.316L201.481 562.033C200.483 563.976 199.975 566.124 200.001 568.302C200.026 570.478 200.584 572.616 201.628 574.536C202.671 576.457 204.17 578.105 205.998 579.338C207.825 580.572 209.928 581.359 212.13 581.631C212.619 581.631 213.328 581.764 214.273 581.827C235.889 582.155 257.356 578.279 277.436 570.425C326.525 551.361 371.312 523.016 409.249 486.997C453.022 447.698 480.275 422.108 494.232 407.54C498.357 403.519 502.087 399.124 505.368 394.415C507.053 392.123 508 389.39 508.086 386.566C508.176 383.745 507.399 380.96 505.859 378.573C504.321 376.186 502.091 374.304 499.451 373.171C496.813 372.04 493.89 371.705 491.057 372.216C490.219 372.368 489.394 372.589 488.595 372.879C488.016 373.085 487.452 373.329 486.907 373.607C485.016 374.534 483.367 375.875 482.085 377.524C480.802 379.174 479.925 381.089 479.516 383.124C478.254 384.604 476.479 386.523 474.184 388.885C460.784 402.823 433.936 428.051 390.703 466.917C355.406 500.476 313.735 526.91 268.054 544.716C257.941 548.359 247.524 551.13 236.919 552.993L412.42 209.433C413.377 207.829 413.99 206.049 414.217 204.204C414.446 202.359 414.283 200.487 413.743 198.706C413.203 196.924 412.297 195.27 411.078 193.847C409.859 192.423 408.356 191.26 406.662 190.43C404.965 189.599 403.114 189.119 401.222 189.02C399.33 188.92 397.438 189.202 395.661 189.849C393.884 190.497 392.264 191.495 390.897 192.782C389.529 194.069 388.429 195.601 387.697 197.316Z" fill="white"/>
<path d="M394.446 191.282C391.171 192.897 388.68 195.721 387.523 199.134C386.365 202.548 386.633 206.272 388.271 209.491L563.772 553.034C553.177 551.172 542.771 548.399 532.67 544.757C487.009 526.947 445.354 500.514 410.073 466.957C366.637 428.075 339.822 402.765 326.508 388.909C324.258 386.538 322.48 384.618 321.175 383.149C320.775 381.08 319.89 379.133 318.589 377.457C317.289 375.784 315.609 374.428 313.683 373.498C313.135 373.224 312.572 372.98 311.995 372.77C311.195 372.483 310.37 372.259 309.531 372.109C306.698 371.594 303.772 371.923 301.132 373.054C298.491 374.185 296.256 376.065 294.714 378.454C293.173 380.842 292.396 383.628 292.483 386.453C292.57 389.279 293.518 392.014 295.204 394.306C298.484 399.018 302.214 403.414 306.342 407.433C320.331 421.966 347.585 447.573 391.359 486.888C429.319 522.897 474.13 551.226 523.239 570.267C543.315 578.141 564.782 582.043 586.402 581.737C587.12 581.724 587.836 581.657 588.544 581.54C590.742 581.266 592.843 580.483 594.669 579.248C596.496 578.014 597.991 576.37 599.036 574.45C600.079 572.533 600.637 570.398 600.666 568.224C600.692 566.048 600.189 563.9 599.193 561.957L413.01 197.324C412.2 195.728 411.076 194.305 409.703 193.136C408.331 191.967 406.736 191.075 405.011 190.512C403.287 189.949 401.465 189.726 399.653 189.855C397.839 189.985 396.07 190.48 394.446 191.282Z" fill="white"/>
</svg>
